<svg id="Capa_1" data-name="Capa 1" xmlns="http://www.w3.org/2000/svg" viewBox="0 0 68.28 72.36"><defs><style>.cls-1{fill:#ff5358;}</style></defs><path class="cls-1" d="M34.54,4.89A33.74,33.74,0,1,0,68.28,38.63,33.74,33.74,0,0,0,34.54,4.89Zm10.52,35.6H33.3a1.87,1.87,0,0,1-1.86-1.86V22.41a1.86,1.86,0,1,1,3.72,0V36.76h9.9a1.87,1.87,0,0,1,0,3.73Z"/><path class="cls-1" d="M65,12.27a1.85,1.85,0,0,0,2.63,0,1.85,1.85,0,0,0,0-2.63L58.54.55a1.86,1.86,0,1,0-2.63,2.63Z"/><path class="cls-1" d="M3.18,12.27l9.09-9.09A1.86,1.86,0,0,0,9.64.55L.55,9.64a1.85,1.85,0,0,0,0,2.63,1.81,1.81,0,0,0,1.31.55A1.85,1.85,0,0,0,3.18,12.27Z"/></svg>