<svg id="Capa_1" data-name="Capa 1" xmlns="http://www.w3.org/2000/svg" viewBox="0 0 237.41 305.41"><defs><style>.cls-1{fill:none;stroke:#fff;stroke-miterlimit:10;stroke-width:3px;}</style></defs><path class="cls-1" d="M127.17,34.74C109,65.57,129.44,63.69,139.11,62.82c35.08-3.17,69.41-67,87.79-60.91C275.56,56,110.22,69.47,129.78,100.29c38.62,58.39,91.54,200.31,72,202.75-24.08,15.13-68-171.91-80.56-178-30.07-14.54,11.68,196.81-24.72,175.82-7.55-28.87-43.5-78.49-4.95-193,17.53-52.1-135-44-76.64-89.18,10.59-8.21,98.08,83.65,94.1.42-1.24-26,40.09-21.51,18.2,15.67"/></svg>