<svg id="Capa_1" data-name="Capa 1" xmlns="http://www.w3.org/2000/svg" viewBox="0 0 274.86 296.81"><defs><style>.cls-1{fill:none;stroke:#fff;stroke-miterlimit:10;stroke-width:3px;}</style></defs><path class="cls-1" d="M173.23,64.89c-17.65,23.44-21.18,52.39-4.69,51.65,54.18-2.44,70.49-72.92,85.77-72.22a2.54,2.54,0,0,1,2.08,2.12c8.16,69.17-92.71,72.62-91.1,114.16.05,1.33.46,1.4,1.72,1.53C244.21,161,291.14,283.3,267,288.2c-28.54,21.14-79.52-80.95-95.8-87.33C132.38,185.64,50.75,315.3,3.44,292.64-8.71,257.42,37,279.45,120,179.12,163.72,126.23,7.34,31.53,38.18,2.06c12-11.45,111.42,158,106.1,60.72-2.46-45,46.6-21.33,28.95,2.11"/></svg>