<svg id="Capa_1" data-name="Capa 1" xmlns="http://www.w3.org/2000/svg" viewBox="0 0 172.71 290.15"><defs><style>.cls-1{fill:none;stroke:#008cb4;stroke-miterlimit:10;stroke-width:2px;fill-rule:evenodd;}</style></defs><path class="cls-1" d="M100.2,46c-12.53,16.63-15,37.17-3.33,36.65C135.3,80.88,148,30,158.84,30.48c1,0,1.94,1.31,2,2.88C163,84,76.85,92.6,95.7,117.77c60.39-16.27,88.14,83.16,71,86.63-20.24,15-56.41-57.43-67.95-62-27.55-10.8,16.41,166.26-19.44,144.93C70.47,272.43,36.11,230.77,62.41,127,74.37,79.81-17.5,22.3,4.38,1.4c8.51-8.13,79.05,112.08,75.27,43.08C77.91,12.53,112.72,29.34,100.2,46"/></svg>