<svg id="Capa_1" data-name="Capa 1" xmlns="http://www.w3.org/2000/svg" viewBox="0 0 204.95 204.92"><defs><style>.cls-1{fill:#ff5358;}</style></defs><path class="cls-1" d="M138,144.16l-13.8-3.07a3.39,3.39,0,0,1-2.67-3.33v-12a25.36,25.36,0,0,0,6.41-16.87V96.06a22.27,22.27,0,0,0-22.25-22.25H99.27A22.27,22.27,0,0,0,77,96.06v12.83a25.32,25.32,0,0,0,6.42,16.87v12a3.39,3.39,0,0,1-2.68,3.33L67,144.16a15.73,15.73,0,0,0-12.39,15.46v42.3a3,3,0,1,0,6,0v-42.3a9.77,9.77,0,0,1,7.7-9.6L82.06,147a9.35,9.35,0,0,0,7.38-9.19v-7a25.34,25.34,0,0,0,26.07,0v7a9.36,9.36,0,0,0,7.38,9.19l13.8,3.07a9.77,9.77,0,0,1,7.69,9.6v42.3a3,3,0,0,0,6,0v-42.3A15.74,15.74,0,0,0,138,144.16ZM83,108.89V96.06A16.26,16.26,0,0,1,99.27,79.82h6.41a16.26,16.26,0,0,1,16.25,16.24v12.83a19.46,19.46,0,1,1-38.91,0Z"/><path class="cls-1" d="M192.09,149.15c-8.05-14.57-19.32-30.52-32.85-46.68C173,86.09,184.36,69.91,192.42,55.21c13.47-24.55,16.14-42,7.72-50.4S174-.9,149.15,12.86c-23.47,13-50.56,34.3-76.28,60-8.23,8.24-16,16.61-23.21,25C36.42,82,25.46,66.33,17.7,52.15,6.24,31.21,3,15.1,9.06,9.06c4.59-4.6,14.91-3.94,29,1.86C53,17,71.1,28.34,90.37,43.6a3,3,0,0,0,3.73-4.71C74.4,23.29,55.82,11.69,40.38,5.36,23.62-1.51,11.32-1.7,4.81,4.81-3.58,13.21-.95,30.57,12.43,55c8.07,14.74,19.5,31,33.28,47.44-13.53,16.16-24.79,32.11-32.85,46.68-13.76,24.87-16.54,42.5-8,51,3.18,3.18,7.7,4.76,13.44,4.76,7.35,0,16.69-2.6,27.76-7.79a3,3,0,1,0-2.55-5.44c-16.71,7.84-29.25,9.38-34.4,4.22-6.13-6.12-2.75-22.51,9-43.84,7.75-14,18.56-29.35,31.55-44.94,6.67,7.74,13.83,15.5,21.39,23.14A3,3,0,0,0,75.32,126c-7.7-7.79-15-15.69-21.74-23.55,7.28-8.48,15.17-17,23.54-25.36S94,60.86,102.47,53.59c8.54,7.33,17.07,15.23,25.37,23.53S144.1,94,151.37,102.48c-6.87,8-14.3,16-22.15,24a3,3,0,0,0,4.26,4.23c7.72-7.79,15-15.69,21.82-23.57,13,15.59,23.79,30.94,31.54,44.94,11.8,21.33,15.18,37.72,9.06,43.85-5.16,5.15-17.7,3.61-34.41-4.23a3,3,0,0,0-2.55,5.44c11.07,5.19,20.42,7.79,27.77,7.79,5.73,0,10.25-1.58,13.43-4.76,8.49-8.49,5.71-26.12-8-51Zm-60-76.28c-8.17-8.16-16.55-16-25-23.21,15.58-13,30.94-23.8,45-31.55,21.32-11.79,37.71-15.18,43.84-9s2.79,22.23-8.74,43.26C179.4,66.46,168.48,82,155.3,97.84,148.1,89.48,140.32,81.11,132.08,72.87Z"/></svg>