<svg id="Capa_1" data-name="Capa 1" xmlns="http://www.w3.org/2000/svg" viewBox="0 0 207.88 202.85"><defs><style>.cls-1{fill:#009f99;}</style></defs><path class="cls-1" d="M205.08,92.86C182.23,71,158.85,56.6,135.2,49.67a3,3,0,0,0,.19-1l-.11-37.34a4.91,4.91,0,0,1,4.9-4.93l58.93-.23a3.07,3.07,0,0,0,0-6.13h0L140.16.24a11,11,0,0,0-11,11.07l.11,36.78c-32.95-7.88-64.82-.83-93.49,17.23a164.65,164.65,0,0,0-33.42,28,9.08,9.08,0,0,0-.12,12.06C20,125.68,39.05,139.85,59.31,147.72v44.47a4.55,4.55,0,0,1-4.54,4.54H6a3.06,3.06,0,1,0,0,6.12H54.77a10.67,10.67,0,0,0,10.66-10.66V149.9c33.91,10.94,68,3.69,98.93-13.64A204.11,204.11,0,0,0,205.09,106,9.08,9.08,0,0,0,205.08,92.86Zm-80.89,51.6c-38,17.3-78.83-18.21-67.17-58.15a3.06,3.06,0,1,0-5.88-1.72A54.91,54.91,0,0,0,73.72,145.9c-23.87-6-46.29-21-66.87-44.59a3,3,0,0,1,0-3.93c7.53-8.31,31-31.7,64.47-41.71a54.59,54.59,0,0,0-15.17,17,3.06,3.06,0,0,0,5.32,3c19.74-34.57,70.45-32.13,86.91,4a48.85,48.85,0,0,1-24.23,64.73Zm76.65-42.9c-8.11,7.82-30.32,27.44-59.61,38.83A55.19,55.19,0,0,0,159,100,55,55,0,0,0,138.33,57.1c21.06,7.14,42,20.57,62.51,40.19A3,3,0,0,1,200.84,101.56Z"/><path class="cls-1" d="M145.84,89.64l-18.18-5.31a3.06,3.06,0,0,0-1.72,5.88l9.88,2.89L107,105V92.62a3.07,3.07,0,0,0-4.41-2.75L61.55,110a3.06,3.06,0,1,0,2.69,5.5l36.64-17.92v12a3.06,3.06,0,0,0,4.23,2.83l33.41-13.8-4.59,9.14a3.06,3.06,0,1,0,5.47,2.75l8.15-16.2A3.1,3.1,0,0,0,145.84,89.64Z"/><path class="cls-1" d="M199.1,15.65H147.23a3.07,3.07,0,0,0,0,6.13H199.1a3.07,3.07,0,0,0,0-6.13Z"/><path class="cls-1" d="M199.1,34.3h-6.95a3.07,3.07,0,0,0,0,6.13h6.95a3.07,3.07,0,0,0,0-6.13Z"/><path class="cls-1" d="M147.23,34.3a3.07,3.07,0,0,0,0,6.13H179.9a3.07,3.07,0,1,0,0-6.13Z"/><path class="cls-1" d="M6,189.73H50.07a3.06,3.06,0,1,0,0-6.12H6a3.06,3.06,0,1,0,0,6.12Z"/><path class="cls-1" d="M2.91,172.78A3.06,3.06,0,0,0,6,175.85H50.07a3.07,3.07,0,1,0,0-6.13H6A3.06,3.06,0,0,0,2.91,172.78Z"/><path class="cls-1" d="M50.07,162a3.07,3.07,0,1,0,0-6.13H33.34a3.07,3.07,0,0,0,0,6.13Z"/></svg>