<svg id="Capa_1" data-name="Capa 1" xmlns="http://www.w3.org/2000/svg" viewBox="0 0 71.39 71.39"><defs><style>.cls-1{fill:#009f99;}</style></defs><path class="cls-1" d="M20.22,29.28a2.79,2.79,0,0,1-5.58,0h0a2.79,2.79,0,1,1,5.58,0Zm24.26,0h0a2.79,2.79,0,1,0-5.58,0h0a2.79,2.79,0,0,0,5.58,0Zm12.13,0h0a2.79,2.79,0,0,0-5.58,0h0a2.79,2.79,0,0,0,5.58,0ZM20.22,41.41a2.79,2.79,0,0,0-5.58,0h0a2.79,2.79,0,0,0,5.58,0Zm-2.79,9.34a2.79,2.79,0,0,0-2.79,2.79h0a2.79,2.79,0,0,0,5.58,0h0A2.79,2.79,0,0,0,17.43,50.75ZM32.35,29.28a2.79,2.79,0,1,0-5.58,0h0a2.79,2.79,0,1,0,5.58,0Zm0,12.13a2.79,2.79,0,0,0-5.58,0h0a2.79,2.79,0,0,0,5.58,0Zm-2.79,9.34a2.79,2.79,0,0,0-2.79,2.79h0a2.79,2.79,0,0,0,5.58,0h0A2.79,2.79,0,0,0,29.56,50.75Zm41.83,3.77A16.88,16.88,0,1,1,54.52,37.64,16.89,16.89,0,0,1,71.39,54.52Zm-5.58,0A11.3,11.3,0,1,0,54.52,65.81,11.31,11.31,0,0,0,65.81,54.52Zm-7.25-2.79H57.3V48.8a2.79,2.79,0,1,0-5.57,0v5.72a2.78,2.78,0,0,0,2.79,2.78h4a2.79,2.79,0,1,0,0-5.57ZM60.23,5.58H56.61V2.79a2.79,2.79,0,0,0-5.58,0V5.58H38.34V2.79a2.79,2.79,0,0,0-5.58,0V5.58H20.22V2.79a2.79,2.79,0,1,0-5.58,0V5.58H11.15A11.16,11.16,0,0,0,0,16.73v43.5A11.17,11.17,0,0,0,11.15,71.39H32.49a2.79,2.79,0,0,0,0-5.58H11.15a5.58,5.58,0,0,1-5.57-5.58V16.73a5.59,5.59,0,0,1,5.57-5.58h3.49v2.79a2.79,2.79,0,0,0,5.58,0V11.15H32.76v2.79a2.79,2.79,0,1,0,5.58,0V11.15H51v2.79a2.79,2.79,0,0,0,5.58,0V11.15h3.62a5.59,5.59,0,0,1,5.58,5.58v15.9a2.79,2.79,0,0,0,5.58,0V16.73A11.17,11.17,0,0,0,60.23,5.58Z"/></svg>