<svg id="Capa_1" data-name="Capa 1" xmlns="http://www.w3.org/2000/svg" viewBox="0 0 209.07 395.17"><defs><style>.cls-1{fill:none;stroke:#009f99;stroke-miterlimit:10;stroke-width:2px;fill-rule:evenodd;}</style></defs><path class="cls-1" d="M151.88,34.57c-25.19,15.48-7,19.08,5.85,33.23,46,50.6,58.77,158.37,45.22,138.68-32-76-51.25-151.61-63.06-78.58,3.16,72.44,70.42,253.72,41.9,254.14-37,18-52.9-196.15-70.06-206.89C70.79,149.53,116.64,426.85,67.62,391c-6.31-42.68-43.84-122.61,29.56-281.18,33.39-72.14-89.21,53.91-95.79,5-6.84-50.95,77.66,7.59,125-94.79,20.07-43.36,50.64-.86,25.46,14.62"/></svg>