<svg id="Capa_1" data-name="Capa 1" xmlns="http://www.w3.org/2000/svg" viewBox="0 0 69.6 70.65"><defs><style>.cls-1{fill:#a7a7a7;}</style></defs><path class="cls-1" d="M0,14.33C0,11.15,0,8,0,4.79A4.43,4.43,0,0,1,4.8,0H23.39a4.41,4.41,0,0,1,4.79,4.67q.08,9.6,0,19.21a4.39,4.39,0,0,1-4.76,4.71q-9.35.06-18.71,0c-3,0-4.7-1.82-4.71-4.85S0,17.47,0,14.33Z"/><path class="cls-1" d="M41.4,56.23c0-3.13,0-6.27,0-9.41,0-2.93,1.74-4.75,4.67-4.77q9.42-.06,18.84,0a4.36,4.36,0,0,1,4.65,4.68q.06,9.6,0,19.21a4.4,4.4,0,0,1-4.75,4.7q-9.35,0-18.71,0a4.41,4.41,0,0,1-4.7-4.74C41.39,62.68,41.4,59.46,41.4,56.23Z"/><path class="cls-1" d="M55.48,0c3.14,0,6.28,0,9.42,0a4.34,4.34,0,0,1,4.65,4.42q.11,9.86,0,19.7a4.26,4.26,0,0,1-4.48,4.46q-9.6.09-19.2,0A4.31,4.31,0,0,1,41.4,24q0-9.66,0-19.33A4.39,4.39,0,0,1,46.06,0C49.2,0,52.34,0,55.48,0Z"/><path class="cls-1" d="M0,56.36C0,53.18,0,50,0,46.81c0-2.92,1.75-4.74,4.68-4.76q9.42-.06,18.84,0a4.37,4.37,0,0,1,4.65,4.68q.08,9.6,0,19.21c0,3-1.89,4.7-4.88,4.71H4.83c-3,0-4.81-1.81-4.82-4.88S0,59.5,0,56.36Z"/></svg>