<svg id="Capa_1" data-name="Capa 1" xmlns="http://www.w3.org/2000/svg" xmlns:xlink="http://www.w3.org/1999/xlink" viewBox="0 0 293.73 474"><defs><style>.cls-1,.cls-3{fill:none;}.cls-2{clip-path:url(#clip-path);}.cls-3{stroke:#ff9200;stroke-miterlimit:10;stroke-width:2px;fill-rule:evenodd;}</style><clipPath id="clip-path"><rect class="cls-1" y="-45" width="290" height="519"/></clipPath></defs><g class="cls-2"><path class="cls-3" d="M114.88,300.13c27.85,22.44,35.08-.09,35.57-9.93,17-45.06-11.74-270.08,6.79-287.48,68.18-15.07-8.58,319.46,24.55,304,52.25-52.9,206.77-67.83,206.43-47.84C399.77,285.18,212.74,307,205,318.8c-18.53,28.2,184.78,71,159,104.63-16.76,25.07-75.19-11.34-180.11-77.2C137.39,317.06,19.44,491.6,7.62,417.86,4.48,398.23,210,331.47,98.82,316.52c-25.68-3.46-17.53-43.46,16.06-16.39"/></g></svg>