<svg id="Capa_1" data-name="Capa 1" xmlns="http://www.w3.org/2000/svg" viewBox="0 0 264 264"><defs><style>.cls-1{fill:#008cb4;}</style></defs><path class="cls-1" d="M251.87,119.87a12.15,12.15,0,0,0-11.5,8.26H206A74.23,74.23,0,0,0,135.87,58V23.63a12.13,12.13,0,1,0-7.74,0V58A74.23,74.23,0,0,0,58,128.13H23.63a12.13,12.13,0,1,0,0,7.74H58A74.23,74.23,0,0,0,128.13,206v34.34a12.13,12.13,0,1,0,7.74,0V206A74.23,74.23,0,0,0,206,135.87h34.34a12.13,12.13,0,1,0,11.5-16ZM12.13,136.4a4.4,4.4,0,1,1,4.4-4.4A4.41,4.41,0,0,1,12.13,136.4ZM127.6,12.13a4.4,4.4,0,1,1,4.4,4.4A4.41,4.41,0,0,1,127.6,12.13Zm8.8,239.74a4.4,4.4,0,1,1-4.4-4.4A4.41,4.41,0,0,1,136.4,251.87ZM132,198.4A66.4,66.4,0,1,1,198.4,132,66.48,66.48,0,0,1,132,198.4Zm119.87-62a4.4,4.4,0,1,1,4.4-4.4A4.4,4.4,0,0,1,251.87,136.4Z"/><path class="cls-1" d="M161.31,141.06l-12.88-5.15a.26.26,0,0,1-.16-.25v-7.79s0-.07,0-.1a20.27,20.27,0,0,0,4.14-12.3v-12.4c0-9-9.15-16.27-20.4-16.27s-20.4,7.3-20.4,16.27v12.4a20.27,20.27,0,0,0,4.14,12.3s0,.06,0,.1v7.79a.26.26,0,0,1-.16.25l-12.88,5.15a12.06,12.06,0,0,0-7.62,11.26v12.75a8,8,0,0,0,8,8h33.06a3.87,3.87,0,1,0,0-7.74H103.07a.27.27,0,0,1-.27-.26V152.32a4.37,4.37,0,0,1,2.77-4.08l12.87-5.15a8,8,0,0,0,5-7.43V134a20.29,20.29,0,0,0,17.06,0v1.67a8,8,0,0,0,5,7.43l12.87,5.15a4.37,4.37,0,0,1,2.77,4.08v12.75a.27.27,0,0,1-.27.26h-8.26a3.87,3.87,0,1,0,0,7.74h8.26a8,8,0,0,0,8-8V152.32A12.06,12.06,0,0,0,161.31,141.06Zm-16.64-25.59a12.67,12.67,0,0,1-25.34,0v-12.4c0-4.63,5.8-8.54,12.67-8.54s12.67,3.91,12.67,8.54Z"/><path class="cls-1" d="M119.26,46.08A3.87,3.87,0,0,0,114.73,43,90.73,90.73,0,0,0,43,114.73a3.87,3.87,0,0,0,3.06,4.53,3.78,3.78,0,0,0,.74.07,3.85,3.85,0,0,0,3.79-3.13A83,83,0,0,1,116.2,50.61,3.85,3.85,0,0,0,119.26,46.08Z"/><path class="cls-1" d="M221,114.73A90.73,90.73,0,0,0,149.27,43a3.87,3.87,0,1,0-1.47,7.59,83,83,0,0,1,65.59,65.59,3.85,3.85,0,0,0,3.79,3.13,3.78,3.78,0,0,0,.74-.07A3.86,3.86,0,0,0,221,114.73Z"/><path class="cls-1" d="M116.2,213.39A83,83,0,0,1,50.61,147.8,3.87,3.87,0,0,0,43,149.27,90.73,90.73,0,0,0,114.73,221a3.78,3.78,0,0,0,.74.07,3.87,3.87,0,0,0,.73-7.66Z"/><path class="cls-1" d="M217.92,144.74a3.85,3.85,0,0,0-4.53,3.06,83,83,0,0,1-65.59,65.59,3.87,3.87,0,0,0,.73,7.66,3.78,3.78,0,0,0,.74-.07A90.73,90.73,0,0,0,221,149.27,3.87,3.87,0,0,0,217.92,144.74Z"/></svg>