<svg id="Capa_1" data-name="Capa 1" xmlns="http://www.w3.org/2000/svg" viewBox="0 0 251 271.1"><defs><style>.cls-1{fill:none;stroke:#f7b800;stroke-miterlimit:10;stroke-width:2px;fill-rule:evenodd;}</style></defs><path class="cls-1" d="M92.71,59.06c16.16,21.47,19.4,48,4.3,47.31-49.63-2.24-64.57-66.79-78.56-66.15a2.29,2.29,0,0,0-1.9,1.94C9.07,105.51,101.46,108.67,100,146.72c0,1.22-.43,1.28-1.58,1.41-70.71-1.07-113.69,111-91.58,115.46C33,283,79.66,189.45,94.57,183.6c35.56-13.94,110.32,104.81,153.66,84.06,11.12-32.26-30.73-12.08-106.74-104C101.43,115.24,244.65,28.5,216.4,1.51c-11-10.49-102.05,144.7-97.17,55.62,2.25-41.25-42.69-19.54-26.52,1.93"/></svg>