<svg id="Capa_1" data-name="Capa 1" xmlns="http://www.w3.org/2000/svg" viewBox="0 0 256.01 233.29"><defs><style>.cls-1{fill:#802ca3;}</style></defs><path class="cls-1" d="M254.83,221.06,201,133.6a8,8,0,0,0-13.66,0l-7,11.36a3.76,3.76,0,0,0,6.4,3.93l7-11.35a.46.46,0,0,1,.43-.24.48.48,0,0,1,.44.24L248.43,225a.51.51,0,0,1-.44.78h-29.8L134.84,90.31a8,8,0,0,0-3-2.84h0V62A34.57,34.57,0,0,0,141,63.19c8.57,0,16.59-3,24.44-5.89,10.88-4,21.15-7.85,32.26-3.39a4.65,4.65,0,0,0,6.37-4.32V7.16a4.65,4.65,0,0,0-2.82-4.28c-14.11-6-26.47-1.43-38.42,3-11.2,4.16-21.78,8.09-33.3,2.94a3.76,3.76,0,0,0-5.29,3.43v.14a4.12,4.12,0,0,0-.1.86V87.47a8,8,0,0,0-3,2.84L81.6,154.63l-12.93-21a8,8,0,0,0-13.67,0L1.19,221.06A8,8,0,0,0,8,233.29H248a8,8,0,0,0,6.84-12.23ZM131.76,17.59c12.16,3.34,23.08-.72,33.69-4.66s20.44-7.58,31.12-3.82v36.5c-12.2-3.35-23.13.71-33.73,4.65s-20.41,7.57-31.08,3.82ZM46.64,225.78l12.89-20.95a3.76,3.76,0,0,0-6.4-3.93L37.82,225.78H8a.46.46,0,0,1-.44-.26.45.45,0,0,1,0-.52L61.4,137.54a.48.48,0,0,1,.43-.24.48.48,0,0,1,.44.24l14.92,24.25L62.29,186a3.76,3.76,0,0,0,6.4,3.94l58.88-95.7A.49.49,0,0,1,128,94a.48.48,0,0,1,.43.25l80.93,131.53Z"/></svg>