<svg id="Capa_1" data-name="Capa 1" xmlns="http://www.w3.org/2000/svg" viewBox="0 0 198.96 197.71"><defs><style>.cls-1{fill:#f7b800;}</style></defs><path class="cls-1" d="M98.85,10a88.26,88.26,0,0,1,45.29,12.83,98.15,98.15,0,0,1,23.62,19.89l-23.38-.77a5,5,0,1,0-.32,9.94l32.34,1.07a5,5,0,0,0,6.49-6.51l-1.07-32.33a5,5,0,0,0-9.95.23.34.34,0,0,0,0,.1l.61,18.66a108,108,0,0,0-23.24-18.81A98.14,98.14,0,0,0,98.85,0a96.22,96.22,0,0,0-72.3,32.34C9.93,50.81,0,75.68,0,98.85a5,5,0,1,0,10,0c0-20.78,9-43.16,24-59.86A86.37,86.37,0,0,1,98.85,10Z"/><path class="cls-1" d="M194,93.88a5,5,0,0,0-5,5c0,20.79-9,43.17-24,59.86a86.38,86.38,0,0,1-64.91,29,88.25,88.25,0,0,1-45.28-12.83A98,98,0,0,1,31.2,155l23.37.77a5,5,0,1,0,.33-9.94L22.56,144.8a5,5,0,0,0-6.49,6.5l1.07,32.33a5,5,0,1,0,9.94-.22v-.11l-.62-18.65A109,109,0,0,0,49.7,183.46a98.2,98.2,0,0,0,50.4,14.25,96.19,96.19,0,0,0,72.3-32.34C189,146.9,199,122,199,98.85A5,5,0,0,0,194,93.88Z"/></svg>