<svg id="Capa_1" data-name="Capa 1" xmlns="http://www.w3.org/2000/svg" viewBox="0 0 257 257"><defs><style>.cls-1{fill:#ff9200;}</style></defs><path class="cls-1" d="M59.77,137.17a21.19,21.19,0,0,0,4.48-12.95,21.42,21.42,0,1,0-42.83,0,21.12,21.12,0,0,0,4.48,12.95A28,28,0,0,0,0,165.05v32a4.29,4.29,0,0,0,4.28,4.29H17.13v51.4A4.29,4.29,0,0,0,21.42,257H64.25a4.28,4.28,0,0,0,4.28-4.28v-51.4H81.38A4.29,4.29,0,0,0,85.67,197v-32A28,28,0,0,0,59.77,137.17Zm-16.94-25.8A12.85,12.85,0,1,1,30,124.22,12.85,12.85,0,0,1,42.83,111.37ZM77.1,192.75H68.53V158.48H60v90H47.12V201.32H38.55v47.11H25.7v-90H17.13v34.27H8.57v-27.7A19.45,19.45,0,0,1,28,145.63H57.68A19.45,19.45,0,0,1,77.1,165.05v27.7Z"/><path class="cls-1" d="M256.74,20a4.27,4.27,0,0,0-2.56-2.56L207.06.26a4.26,4.26,0,0,0-5.74,4v77.1h-25.7a4.29,4.29,0,0,0-4.29,4.29v38.55a4.29,4.29,0,0,0,4.29,4.28h60a4.29,4.29,0,0,0,4.29-4.28V85.67a4.29,4.29,0,0,0-4.29-4.29h-25.7V41.55l44.3-16.11A4.28,4.28,0,0,0,256.74,20ZM231.3,90v30H179.9V90h21.42v17.13h8.56V90ZM209.88,32.44v-22l30.3,11Z"/><path class="cls-1" d="M162.77,141.35H115.65a17.14,17.14,0,0,1,0-34.27h31L130,120.93l5.48,6.58,25.7-21.42a4.27,4.27,0,0,0,.55-6,4.08,4.08,0,0,0-.55-.55l-25.7-21.42L130,84.67l16.61,13.85h-31a25.7,25.7,0,0,0,0,51.4h47.12a38.55,38.55,0,0,1,0,77.1H90v8.56h72.82a47.12,47.12,0,0,0,0-94.23Z"/></svg>