<svg id="Capa_1" data-name="Capa 1" xmlns="http://www.w3.org/2000/svg" viewBox="0 0 230.91 238.91"><defs><style>.cls-1{fill:#ff5358;}</style></defs><path class="cls-1" d="M94.46,55.75H84.85A35.6,35.6,0,0,0,59.51,66.24L13.1,112.66a4,4,0,0,0,0,5.63L33,138.2a4,4,0,0,0,5.63,0l37-37v41.48L44,233.62a4,4,0,0,0,3.76,5.29H83.6a4,4,0,0,0,3.76-2.67l28.32-81.4,31.91,81.54a4,4,0,0,0,3.7,2.53h35.84a4,4,0,0,0,3.71-5.43L155.28,142.6V101.19l37,37a4,4,0,0,0,5.63,0l19.91-19.91a4,4,0,0,0,0-5.63L171.4,66.24a35.56,35.56,0,0,0-25.34-10.49h-9.6a31.86,31.86,0,1,0-42,0Zm51.6,8a27.69,27.69,0,0,1,19.71,8.16l43.6,43.6-14.28,14.28-41-41a4,4,0,0,0-6.8,2.81v51.77a4.28,4.28,0,0,0,.27,1.45L181.3,231H154l-34.84-89a4,4,0,0,0-3.71-2.54h-.08A4,4,0,0,0,111.7,142L80.77,231H53.37l30-86.3a3.86,3.86,0,0,0,.22-1.3V91.58a4,4,0,0,0-6.79-2.81l-41,41L21.54,115.47l43.6-43.6a27.71,27.71,0,0,1,19.71-8.16ZM115.46,8A23.9,23.9,0,1,1,91.57,31.85,23.92,23.92,0,0,1,115.46,8Z"/><path class="cls-1" d="M112.72,122.34a4,4,0,0,0,5.48,0l17.07-16.2a12.81,12.81,0,0,0,0-18.74,14.09,14.09,0,0,0-19.15,0h0l-.67.64-.68-.64a14.07,14.07,0,0,0-19.14,0,12.82,12.82,0,0,0,0,18.74Zm-11.6-29.17a6,6,0,0,1,8.18,0l3.42,3.24a4,4,0,0,0,5.48,0l3.41-3.24a6,6,0,0,1,8.19,0,4.86,4.86,0,0,1,0,7.19L115.46,114l-14.34-13.61a4.86,4.86,0,0,1,0-7.19Z"/><path class="cls-1" d="M198,38.73c-1.95-2-4-3.92-6-5.73l-5.27,6c1.91,1.68,3.79,3.48,5.61,5.34Z"/><path class="cls-1" d="M202.32,56.12l6.43-4.7c-1.64-2.24-3.37-4.43-5.15-6.53L197.53,50C199.19,52,200.8,54,202.32,56.12Z"/><path class="cls-1" d="M171.66,18.6c-2.42-1.35-4.91-2.63-7.4-3.79L160.89,22c2.32,1.09,4.64,2.27,6.89,3.53Z"/><path class="cls-1" d="M210.53,69.24l7-3.73c-1.3-2.45-2.69-4.87-4.16-7.21l-6.75,4.23c1.36,2.17,2.67,4.43,3.87,6.71Z"/><path class="cls-1" d="M222.81,113.67l8-.42c-.15-2.78-.4-5.57-.74-8.29l-7.9,1C222.45,108.49,222.68,111.08,222.81,113.67Z"/><path class="cls-1" d="M216.77,83.4l7.5-2.67c-.93-2.61-2-5.21-3.08-7.74l-7.29,3.22c1,2.35,2,4.77,2.87,7.19Z"/><path class="cls-1" d="M219.43,169.72l-7.16-3.48c-1.12,2.3-2.34,4.6-3.63,6.85l6.9,4c1.39-2.4,2.7-4.87,3.89-7.34Z"/><path class="cls-1" d="M225.58,154.28l-7.59-2.4c-.78,2.46-1.66,4.91-2.6,7.28l7.4,3c1-2.55,2-5.18,2.79-7.83Z"/><path class="cls-1" d="M211.13,184.11l-6.6-4.46c-1.43,2.11-3,4.21-4.57,6.24l6.26,4.94c1.72-2.19,3.37-4.45,4.91-6.72Z"/><path class="cls-1" d="M189.53,197.34l5.5,5.77c2-1.9,3.95-3.9,5.81-5.94L195,191.8c-1.74,1.91-3.56,3.77-5.43,5.54Z"/><path class="cls-1" d="M220.89,98.31l7.81-1.56c-.54-2.72-1.19-5.45-1.92-8.09l-7.68,2.12C219.78,93.24,220.39,95.77,220.89,98.31Z"/><path class="cls-1" d="M229.43,138.11l-7.86-1.28c-.41,2.54-.92,5.09-1.51,7.59l7.74,1.84c.64-2.68,1.19-5.43,1.63-8.15Z"/><path class="cls-1" d="M230.91,121.56l-8-.14c0,2.57-.18,5.17-.41,7.73l7.93.71C230.71,127.11,230.87,124.32,230.91,121.56Z"/><path class="cls-1" d="M185.56,27.72c-2.18-1.67-4.46-3.29-6.79-4.81l-4.37,6.65c2.17,1.42,4.29,2.93,6.32,4.48Z"/><path class="cls-1" d="M8.37,129c-.23-2.55-.36-5.15-.41-7.74l-8,.13c.05,2.78.19,5.58.44,8.31Z"/><path class="cls-1" d="M8.8,105.82l-7.9-1c-.34,2.72-.59,5.5-.74,8.28l7.94.43c.15-2.58.38-5.18.7-7.71Z"/><path class="cls-1" d="M11.85,90.65,4.18,88.52c-.73,2.64-1.38,5.36-1.94,8.09l7.81,1.57C10.57,95.64,11.17,93.11,11.85,90.65Z"/><path class="cls-1" d="M70.15,22l-3.36-7.22c-2.51,1.16-5,2.43-7.41,3.77l3.87,7C65.49,24.24,67.82,23.05,70.15,22Z"/><path class="cls-1" d="M24.33,62.41l-6.75-4.23c-1.47,2.34-2.87,4.77-4.16,7.2l7,3.74c1.2-2.27,2.51-4.52,3.88-6.71Z"/><path class="cls-1" d="M17.06,76.08,9.78,72.87C8.65,75.43,7.61,78,6.7,80.59l7.49,2.68C15,80.88,16,78.46,17.06,76.08Z"/><path class="cls-1" d="M44.32,38.88l-5.28-6c-2.08,1.84-4.11,3.77-6,5.72l5.69,5.58C40.49,42.39,42.38,40.59,44.32,38.88Z"/><path class="cls-1" d="M41.32,197.29c-1.89-1.81-3.71-3.67-5.41-5.55L30,197.1c1.83,2,3.79,4,5.81,6Z"/><path class="cls-1" d="M33.47,49.93l-6.06-5.16c-1.8,2.11-3.53,4.31-5.16,6.53L28.67,56C30.19,53.94,31.8,51.89,33.47,49.93Z"/><path class="cls-1" d="M15.49,159.07c-1-2.4-1.83-4.85-2.6-7.3L5.3,154.16c.83,2.63,1.77,5.27,2.78,7.84Z"/><path class="cls-1" d="M56.63,29.49l-4.36-6.66c-2.3,1.5-4.58,3.12-6.79,4.8L50.31,34C52.36,32.39,54.49,30.89,56.63,29.49Z"/><path class="cls-1" d="M1.46,138c.44,2.72,1,5.46,1.63,8.17l7.74-1.84c-.59-2.51-1.1-5.07-1.51-7.59Z"/><path class="cls-1" d="M22.23,173c-1.28-2.21-2.5-4.52-3.62-6.85l-7.17,3.48c1.21,2.5,2.52,5,3.89,7.35Z"/><path class="cls-1" d="M30.89,185.82c-1.57-2-3.11-4.1-4.56-6.25L19.73,184c1.56,2.31,3.21,4.57,4.91,6.72Z"/><path class="cls-1" d="M119.61,234.85c2.77-.1,5.56-.3,8.3-.6l-.87-7.92c-2.55.28-5.14.47-7.72.56Z"/><path class="cls-1" d="M111.28,234.86l.3-8c-2.57-.1-5.17-.29-7.73-.57l-.86,7.92c2.75.3,5.54.5,8.29.61Z"/></svg>