<svg id="Capa_1" data-name="Capa 1" xmlns="http://www.w3.org/2000/svg" viewBox="0 0 222.21 221.38"><defs><style>.cls-1{fill:#802ca3;}</style></defs><g id="Out_line" data-name="Out line"><path class="cls-1" d="M200.6,133.31A47.11,47.11,0,0,0,162.33,153l-4.91,6.88L125.7,170.46h-1.57l27.09-27.1a3.72,3.72,0,0,0-2.63-6.34h-8.25A64.11,64.11,0,0,0,95.05,155.6H75a40.9,40.9,0,0,0-29.14,12.07L1.09,212.41l5.25,5.25,44.74-44.74A33.55,33.55,0,0,1,75,163H96.59a3.68,3.68,0,0,0,2.62-1.09l.77-.77a56.67,56.67,0,0,1,39.64-16.71L105.1,179l5.26,5.26,6.34-6.34h9.6a3.66,3.66,0,0,0,1.18-.2l33.43-11.14a3.77,3.77,0,0,0,1.85-1.36l5.62-7.87a39.68,39.68,0,0,1,25-15.92l-21.33,33.52-50.25,21.54H70.58A3.73,3.73,0,0,0,68,197.55L49.38,216.12l5.25,5.26,17.49-17.49h50.47a3.67,3.67,0,0,0,1.46-.3l52-22.29a3.67,3.67,0,0,0,1.67-1.42l26-40.86a3.71,3.71,0,0,0-1.14-5.13,3.67,3.67,0,0,0-2-.58Z"/><path class="cls-1" d="M108.82,135.93a3.71,3.71,0,0,0,5.25,0h0L180.92,69a40.44,40.44,0,0,0-57.21-57.18L111.44,24.12,99.18,11.85A40.44,40.44,0,0,0,42,69ZM47.24,17.1a33,33,0,0,1,46.69,0L108.82,32a3.71,3.71,0,0,0,5.25,0L129,17.1a33,33,0,0,1,46.7,46.68h0l-64.22,64.27L47.23,63.78A33.05,33.05,0,0,1,47.24,17.1Z"/><path class="cls-1" d="M70.58,22.29V14.87a25.5,25.5,0,0,0-8.69,1.5l2.52,7a18.29,18.29,0,0,1,6.17-1.07Z"/><path class="cls-1" d="M57.25,52.77a18.1,18.1,0,0,1,.49-25.16l.51-.48-5-5.45-.71.68a25.5,25.5,0,0,0-.69,35.46Z"/><path class="cls-1" d="M0,33H22.29v7.43H0Z"/><path class="cls-1" d="M2.84,11.47,4.76,4.29,26.3,10.06l-1.93,7.18Z"/><path class="cls-1" d="M2.85,62l21.53-5.77,1.93,7.17L4.77,69.16Z"/><path class="cls-1" d="M199.92,33h22.29v7.43H199.92Z"/><path class="cls-1" d="M195.94,10l21.53-5.77,1.93,7.18L197.87,17.2Z"/><path class="cls-1" d="M196,63.38l1.92-7.18L219.42,62l-1.92,7.17Z"/></g></svg>