<svg id="Capa_1" data-name="Capa 1" xmlns="http://www.w3.org/2000/svg" viewBox="0 0 194.18 239"><defs><style>.cls-1{fill:#a6c400;}</style></defs><path class="cls-1" d="M171.53,151l-.82.44c-4.21-5-11.38-6.85-16.86-4.07l-.07,0-2.23,1.21a18.53,18.53,0,0,0-21.08-1.8l-12.87,7h-3.28c-.1-1.52-.21-3.05-.36-4.61a1.49,1.49,0,0,0,0-.21c-.15-1.63-.33-3.28-.53-5A41.16,41.16,0,0,1,116,128.67c.36-1,.74-1.95,1.15-2.9a2.85,2.85,0,0,0,.87-1.89,47.09,47.09,0,0,1,5.56-8.86l4.42.28a49.57,49.57,0,0,0,6.77.46,41.08,41.08,0,0,0,26.9-9.55C174,96,181.53,77.89,182.43,56.67a2.85,2.85,0,0,0-2.73-3,3,3,0,0,0-1.07.16L144.37,65.93c-10.62,3.74-18.87,13.46-22.08,26A138.87,138.87,0,0,0,119,111.67a51.81,51.81,0,0,0-3.47,5,62.66,62.66,0,0,1-.57-38.19l5.74-2.82c30.59-15.07,45.52-48.26,33.29-74A2.86,2.86,0,0,0,150.13.28a3.38,3.38,0,0,0-.41.24l-22.9,16.09a46.42,46.42,0,0,0-20,29.5,57.69,57.69,0,0,0,2.61,30.74l0,.09a69.27,69.27,0,0,0,2.5,46.48c-.47,1.09-.91,2.2-1.32,3.32,0,.1-.06.2-.1.3a127.21,127.21,0,0,0-7.89-23.82c0-.08,0-.16,0-.24l.24-7.87C103.91,61,81.58,32.29,53.11,31a2.85,2.85,0,0,0-3,2.73,2.57,2.57,0,0,0,0,.48L53.65,62A46.38,46.38,0,0,0,70.32,93.53a57.46,57.46,0,0,0,27,11.89A121.6,121.6,0,0,1,105.92,133q1.1,5.89,1.79,11.51a39.56,39.56,0,0,0,.55,5.1c.13,1.41.24,2.8.34,4.18h-8.16a24.68,24.68,0,0,1-10.65-2.44l-2.37-1.15a40.94,40.94,0,0,0-42.59,4.16l-.18.15-5.72,5.1c-.49.43-1,.82-1.51,1.2l-.82-4.89a2.87,2.87,0,0,0-3.29-2.35h0L2.38,158.75A2.86,2.86,0,0,0,0,162H0l12.51,74.58A2.87,2.87,0,0,0,15.37,239a2.42,2.42,0,0,0,.47,0l30.93-5.19a2.86,2.86,0,0,0,2.34-3.29h0l-3.2-19.06L63.1,200.56a9.93,9.93,0,0,1,7.24-.94l.18,0L105.06,206a45,45,0,0,0,27.79-3.92,2.5,2.5,0,0,0,.35-.21l59.74-41a2.87,2.87,0,0,0,.83-3.83A16.68,16.68,0,0,0,171.53,151ZM127.82,93.35c2.74-10.69,9.64-18.93,18.45-22l30.18-10.64c-1.58,17.75-8.19,32.59-18.44,41.15-8.06,6.73-17.93,9.36-29.34,7.8h0L154,86.49a2.86,2.86,0,1,0-3.86-4.21h0L125.59,104.7a114.93,114.93,0,0,1,2.23-11.35ZM74,68.38,87,86.93A112.13,112.13,0,0,1,94.24,99C71.06,93.68,61,76.48,59.32,61.35l-3.06-24.3C79.32,40.14,97.05,64,97.2,92.5q-2.6-4.56-5.56-8.83L78.73,65.12A2.86,2.86,0,0,0,74,68.38Zm82.42,84c2.91-1.46,6.56-.35,9,1.82l-23.34,12.58a19.89,19.89,0,0,0-2.83-5.15Zm-23.22-.64.06,0a12.83,12.83,0,0,1,12.6-.12L135,157.5a19.71,19.71,0,0,0-6.59-3.09ZM130.07,21.31l20-14.08c8.3,22.44-5.43,50.19-32,63.26l-.53.26q1.23-3,2.75-6.07a96.55,96.55,0,0,1,17.72-24.75,2.85,2.85,0,1,0-3.91-4.16h0A100.59,100.59,0,0,0,115.32,62c-1,1.93-1.85,3.86-2.66,5.8-5-21.94,5.2-38.16,17.41-46.45ZM17.72,232.85,6.15,163.91l25.28-4.24L43,228.61Zm112.42-35.79a39.24,39.24,0,0,1-24.06,3.34l-34.44-6.34a15.64,15.64,0,0,0-11.39,1.54l-.14.08-15.22,9.63-6.44-38.38a24.85,24.85,0,0,0,4.27-3.07l5.64-5a35.22,35.22,0,0,1,36.58-3.51l2.37,1.14a30.28,30.28,0,0,0,13.13,3h23a14.25,14.25,0,0,1,13.9,11.22L121,170a98.58,98.58,0,0,0-18.17.84,2.86,2.86,0,1,0,.78,5.66,94.34,94.34,0,0,1,17.13-.8l19.6.89h.13a2.84,2.84,0,0,0,2.85-2.85q0-.54,0-1.08L174.24,156a11,11,0,0,1,13,1.88Z"/><path class="cls-1" d="M27.25,212.23a8.4,8.4,0,1,0,6.26,1.44A8.38,8.38,0,0,0,27.25,212.23Zm4,7.83a2.67,2.67,0,1,1-3.07-2.2,3.13,3.13,0,0,1,.43,0,2.67,2.67,0,0,1,2.64,2.24Z"/><path class="cls-1" d="M15.1,174.92a2.85,2.85,0,0,0,2.27-3.34L17,169.37a2.85,2.85,0,0,0-5.63.95s0,.08,0,.12l.42,2.21A2.86,2.86,0,0,0,15.1,174.92Z"/><path class="cls-1" d="M21.69,209.44A2.85,2.85,0,0,0,24,206.1l-4.57-24a2.86,2.86,0,1,0-5.62,1v.05l4.57,24a2.87,2.87,0,0,0,3.34,2.28h0Z"/></svg>