<svg id="Capa_1" data-name="Capa 1" xmlns="http://www.w3.org/2000/svg" viewBox="0 0 283.68 278.64"><defs><style>.cls-1{fill:none;stroke:#ffa200;stroke-miterlimit:10;}.cls-2{fill:#ffa200;}</style></defs><path class="cls-1" d="M200,25.94c-13.88,23.59,1.74,22.15,9.14,21.48C236,45,262.22-3.85,276.29.81,313.52,42.17,187,52.51,202,76.1c29.55,44.68,70,153.28,55.06,155.15C238.61,242.83,205,99.69,195.39,95c-23-11.13,8.93,150.6-18.92,134.54-5.78-22.09-33.29-60.06-3.79-147.7C186.1,42,69.4,48.22,114,13.62c8.11-6.28,75.06,64,72,.33-1-19.9,30.67-16.46,13.92,12"/><path class="cls-2" d="M131.41,102.31c-13.5,17.94-16.21,40.1-3.58,39.53C169.28,140,181.77,86,193.46,86.57a1.93,1.93,0,0,1,1.59,1.63c6.25,52.92-70.94,55.56-69.71,87.36,0,1,.35,1.07,1.31,1.17,59.08-.9,95,92.72,76.52,96.47-21.84,16.17-60.85-61.94-73.31-66.83C100.15,194.72,37.69,293.94,1.48,276.6c-9.29-27,25.68-10.09,89.18-86.87C124.13,149.25,4.47,76.79,28.07,54.23c9.17-8.76,85.26,120.9,81.19,46.47-1.88-34.46,35.66-16.32,22.15,1.61"/></svg>