<svg id="Capa_1" data-name="Capa 1" xmlns="http://www.w3.org/2000/svg" viewBox="0 0 235.82 239"><defs><style>.cls-1{fill:#009f99;}</style></defs><path class="cls-1" d="M44,0c6.59,6.89,13.21,13.77,19.78,20.69Q74.91,32.44,86,44.24c.48.5.9,1.07,1.54,1.84.51-1,.84-1.65,1.19-2.31A15.43,15.43,0,0,1,113,39.53c6.49,6.13,12.94,12.36,18.84,19.06a43.81,43.81,0,0,1,7.1,12.15c3.32,8,6.08,16.29,9,24.48A4.08,4.08,0,0,0,150.64,98c8.47,3,16.9,6.15,25.34,9.25a35.71,35.71,0,0,1,13.19,8.52c6.2,6.23,12.14,12.73,18.68,18.58,9.88,8.84,6.71,24.33-6.91,28,2,1.85,3.84,3.41,5.54,5.07,2.64,2.57,3,4.43,1.32,6.17s-3.7,1.34-6.18-1.15Q190,160.79,178.39,149.16c-.57-.57-1.2-1.1-2.22-2v3c0,15.4,0,30.8,0,46.2,0,4-.56,7.75-3.89,11.69a9.9,9.9,0,0,1,2.3,1.26q11.33,11.25,22.58,22.59c2.89,2.89,2.9,4.37.09,7.15h-2.79q-13-13-26-26a3.29,3.29,0,0,0-3.39-1.13c-6.22,1.2-10.71-1.07-15.16-7.45-3.49,2-7.2,3-11.26,1.86a14.59,14.59,0,0,1-9-7.48c-4.47,2.72-9,3.38-13.79,1.13a13.49,13.49,0,0,1-7.79-10.59c-3,.26-5.91,1-8.74.68C93,189.31,88,183.59,87.78,177.12c-.07-1.87-.09-3.74,0-5.6a3.39,3.39,0,0,1,3.46-3.37,3.35,3.35,0,0,1,3.43,3.17c.17,1.7,0,3.42.09,5.13a6.89,6.89,0,0,0,6.34,6.85,6.64,6.64,0,0,0,6.92-6.43c.21-3.57.06-7.16.1-10.73,0-2.84,1.24-4.29,3.48-4.27s3.47,1.49,3.49,4.3c0,7,0,14,0,21,0,3.7,2.14,6.32,5.34,7a6.63,6.63,0,0,0,7.89-6.48c.1-5,0-10,0-14.94,0-.62,0-1.24,0-1.86.13-2.5,1.54-4,3.66-3.94s3.3,1.5,3.31,4c0,6.53,0,13.07,0,19.6,0,.78,0,1.56,0,2.33.29,4,3.21,7,6.79,6.93,3.83-.08,6.55-3,6.59-7.27,0-4.74,0-9.49,0-14.23,0-2.75,1.28-4.32,3.45-4.34s3.51,1.58,3.52,4.29c0,6.46,0,12.91,0,19.37,0,4.58,2.71,7.63,6.68,7.62s6.69-3.09,6.69-7.66q0-28,0-56c0-.78,0-1.56,0-2.34-.07-1.78.43-3.23,2.21-4s3.12.13,4.34,1.36c3,3,5.92,5.94,8.88,8.91,2.41,2.43,4.79,4.88,7.25,7.26,3.67,3.55,8.89,3.61,12.32.22a8.65,8.65,0,0,0-.09-12.35c-6.82-6.92-13.52-14-20.68-20.53a34.92,34.92,0,0,0-10.83-6.55c-14.83-5.71-29.82-11-44.72-16.5A10.36,10.36,0,0,1,124,94.56Q82.89,51.16,41.83,7.69c-.32-.34-.64-.68-.95-1-2.49-2.72-2.29-4.44.76-6.66ZM140.2,94.1c-3.36-8.83-6.43-17.09-9.67-25.28a14.76,14.76,0,0,0-3-4.65c-6.41-6.64-12.87-13.25-19.48-19.7-2.4-2.34-5.58-2.65-8.7-1.38A8.15,8.15,0,0,0,94,50.4a4.9,4.9,0,0,0,1.17,3.29q16.59,17.79,33.35,35.45a5.22,5.22,0,0,0,1.83,1.35C133.36,91.66,136.43,92.73,140.2,94.1Z"/><path class="cls-1" d="M63.39,82.17c2.15,0,4,0,5.86,0,10.42.07,16.81,9.16,13.31,18.93-.15.42-.27.85-.41,1.31,9.21.79,16.7,9.55,11.62,21,5.92,2.26,9.54,6.45,9.72,12.89.18,6.24-3.12,10.54-8.76,13.23,0,1.55,0,3.1,0,4.65-.06,2.56-1.35,4.07-3.47,4.09s-3.45-1.47-3.51-4c0-1.22,0-2.45,0-3.94-3.15,0-6.09-.14-9,0a13.8,13.8,0,0,1-13.63-19.65,3.53,3.53,0,0,0,.09-.8c-1.15,0-2.27,0-3.39,0-10.74-.07-17-9.16-13.22-19.21.1-.28.16-.57.25-.86-11.19-1.27-16.18-11.12-12.11-20.47-1.52-.2-3-.26-4.5-.6A13.53,13.53,0,0,1,22.9,69.84a2.47,2.47,0,0,0-.65-3.36c-6.69-6.61-13.31-13.29-19.95-20A12.14,12.14,0,0,1,.72,44.82,3.29,3.29,0,0,1,1,40.36,3.16,3.16,0,0,1,5.47,40a13.92,13.92,0,0,1,1.88,1.73C14,48.28,20.56,54.86,27.1,61.51c1.21,1.24,2.24,1.86,4,1a8.11,8.11,0,0,1,3.4-.6,3.15,3.15,0,0,1,3.32,3,3.26,3.26,0,0,1-2.24,3.67,19,19,0,0,1-2,.5,6.75,6.75,0,0,0-4.88,7.06,6.54,6.54,0,0,0,6.15,6c5.66.14,11.34.14,17,0a6.53,6.53,0,0,0,6.15-6.21A6.63,6.63,0,0,0,52.58,69c-.61-.12-1.23-.16-1.84-.28-2.06-.38-3.25-1.79-3.05-3.71a3.15,3.15,0,0,1,3.4-3.13,15.9,15.9,0,0,1,5.21,1,13.55,13.55,0,0,1,7.91,17C64,80.49,63.75,81.14,63.39,82.17Zm-4,7c-3.34,0-6.68,0-10,0-4.16.06-7.16,2.92-7.14,6.72s3,6.65,7.2,6.69q10,.08,20,0c4.19,0,7.13-2.9,7.12-6.73s-3-6.62-7.17-6.67C66.08,89.14,62.75,89.18,59.41,89.18Zm11.82,20.44c-3.26,0-6.52-.05-9.78,0-4.18.07-7.14,2.91-7.08,6.72s3,6.53,7,6.56q10,.07,20,0c4.21,0,7.11-2.86,7.06-6.72s-2.88-6.49-7-6.56C78.05,109.57,74.64,109.62,71.23,109.62Zm12.35,33.7h0c2.09,0,4.18.06,6.27,0a6.73,6.73,0,0,0,6.71-6.39,6.44,6.44,0,0,0-6-6.79,117.37,117.37,0,0,0-13.91,0A6.26,6.26,0,0,0,70.83,137a6.54,6.54,0,0,0,6.48,6.33C79.39,143.39,81.49,143.32,83.58,143.32Z"/><path class="cls-1" d="M232.91,202.48a15.79,15.79,0,0,1-3-1.81q-7.55-7.41-15-15c-1.69-1.73-1.68-3.68-.17-5.16a3.44,3.44,0,0,1,5,.16c5.14,5.06,10.28,10.13,15.23,15.37a4.55,4.55,0,0,1,.72,3.78C235.39,200.86,234,201.55,232.91,202.48Z"/></svg>